/* XPM */
static char * tdd_xpm[] = {
"32 32 670 2",
"  	c #F5FFFA",
". 	c #F6ECE3",
"+ 	c #EEBDB9",
"@ 	c #CB7576",
"# 	c #C25656",
"$ 	c #DB6E6B",
"% 	c #D26F69",
"& 	c #BF655C",
"* 	c #8F98A9",
"= 	c #839BB3",
"- 	c #789FC0",
"; 	c #74A1C0",
"> 	c #78A0BA",
", 	c #7C9EB7",
"' 	c #7A9FBC",
") 	c #75A0C3",
"! 	c #81AD7A",
"~ 	c #C6C283",
"{ 	c #C7C183",
"] 	c #C7C185",
"^ 	c #BCB57F",
"/ 	c #CFC89C",
"( 	c #EAE6C9",
"_ 	c #EFEDE0",
": 	c #FFFFFB",
"< 	c #F9EBE2",
"[ 	c #BFA197",
"} 	c #B07972",
"| 	c #BA7067",
"1 	c #C77369",
"2 	c #CC7A6C",
"3 	c #BC7563",
"4 	c #BB7C6A",
"5 	c #999BA7",
"6 	c #8E9FB3",
"7 	c #83A2BE",
"8 	c #7FA4BF",
"9 	c #83A3B8",
"0 	c #87A2B5",
"a 	c #84A2BA",
"b 	c #80A3C1",
"c 	c #8DAD86",
"d 	c #C6BB9B",
"e 	c #C9BC99",
"f 	c #D0C49A",
"g 	c #C3B88B",
"h 	c #C0B78E",
"i 	c #C6C09E",
"j 	c #CFCDB4",
"k 	c #F8FAE5",
"l 	c #ECB7AF",
"m 	c #AF766B",
"n 	c #B17364",
"o 	c #D69883",
"p 	c #EFB19A",
"q 	c #ECB49B",
"r 	c #DDAB90",
"s 	c #E8BAA0",
"t 	c #CBC8D3",
"u 	c #C0CBDD",
"v 	c #B4D0E8",
"w 	c #B1D1EA",
"x 	c #B5D0E3",
"y 	c #B9CEDF",
"z 	c #B6CFE5",
"A 	c #B2D0EC",
"B 	c #BFD6B9",
"C 	c #F8E6DA",
"D 	c #F4E2CE",
"E 	c #FBEACC",
"F 	c #F1E2BB",
"G 	c #E0D3A7",
"H 	c #C9C294",
"I 	c #C2BF96",
"J 	c #E8E9C1",
"K 	c #C07369",
"L 	c #B56D5E",
"M 	c #D5937D",
"N 	c #E9AC90",
"O 	c #EFB496",
"P 	c #F4B89C",
"Q 	c #EEB097",
"R 	c #F5B49E",
"S 	c #C8C9DB",
"T 	c #BDCDE7",
"U 	c #B0D1F2",
"V 	c #AED2F4",
"W 	c #B2D1ED",
"X 	c #B5D1E9",
"Y 	c #B3D0EE",
"Z 	c #AFD1F6",
"` 	c #BEDCB8",
" .	c #FFF6D5",
"..	c #FFEDC8",
"+.	c #FFF3C6",
"@.	c #FFF0BB",
"#.	c #FDECB4",
"$.	c #E1D6A0",
"%.	c #BAB482",
"&.	c #BFBB8C",
"*.	c #AB5D50",
"=.	c #BE7360",
"-.	c #E79F87",
";.	c #E79D82",
">.	c #D78A6E",
",.	c #DF8972",
"'.	c #E07F6E",
").	c #E47E70",
"!.	c #9AA8C5",
"~.	c #8FABD2",
"{.	c #84AFDC",
"].	c #80B1DC",
"^.	c #84B0D7",
"/.	c #88AED3",
"(.	c #85AFD9",
"_.	c #81AFE0",
":.	c #93C28C",
"<.	c #F5E496",
"[.	c #F6E394",
"}.	c #FFEA99",
"|.	c #FAE596",
"1.	c #FFEDA5",
"2.	c #F3E3A7",
"3.	c #C4B886",
"4.	c #B3AA7F",
"5.	c #BA7566",
"6.	c #DE907A",
"7.	c #E48E77",
"8.	c #DB7B63",
"9.	c #DF7460",
"0.	c #E16D5E",
"a.	c #EE7467",
"b.	c #8D9FC5",
"c.	c #82A3D0",
"d.	c #75A7DA",
"e.	c #73A8DC",
"f.	c #77A7D5",
"g.	c #7BA6D1",
"h.	c #78A6D7",
"i.	c #74A7DE",
"j.	c #85C080",
"k.	c #F4E178",
"l.	c #FDEA81",
"m.	c #FFF28C",
"n.	c #FAE385",
"o.	c #FBE592",
"p.	c #F4E19F",
"q.	c #D0BE8C",
"r.	c #C5B68D",
"s.	c #AF7166",
"t.	c #AD675B",
"u.	c #CF7C6C",
"v.	c #DA7B67",
"w.	c #D7715B",
"x.	c #DE745E",
"y.	c #D9705A",
"z.	c #E17862",
"A.	c #8D9ABD",
"B.	c #829DC8",
"C.	c #76A1D4",
"D.	c #73A3D4",
"E.	c #77A2CF",
"F.	c #7AA1CC",
"G.	c #78A1CF",
"H.	c #74A2D6",
"I.	c #81BB81",
"J.	c #F7DF7F",
"K.	c #F6DE7C",
"L.	c #FEE483",
"M.	c #F5DB7E",
"N.	c #F4DA86",
"O.	c #E4CD89",
"P.	c #C1AC75",
"Q.	c #BFAD7D",
"R.	c #A2635C",
"S.	c #B46B64",
"T.	c #DC857B",
"U.	c #D97867",
"V.	c #CF6B54",
"W.	c #D7795D",
"X.	c #CB7755",
"Y.	c #BF734F",
"Z.	c #8E93B1",
"`.	c #8396BE",
" +	c #769BC8",
".+	c #739CCA",
"++	c #789BC3",
"@+	c #7A9AC0",
"#+	c #799AC5",
"$+	c #759BCC",
"%+	c #81B285",
"&+	c #F7DA8E",
"*+	c #E7CA7A",
"=+	c #EFD07E",
"-+	c #F9DA87",
";+	c #FFE496",
">+	c #E9D189",
",+	c #BDA869",
"'+	c #BCA971",
")+	c #A76650",
"!+	c #B3715B",
"~+	c #BE7761",
"{+	c #C2765F",
"]+	c #C3715C",
"^+	c #C76F5B",
"/+	c #CC6D5B",
"(+	c #CB6A57",
"_+	c #7488BB",
":+	c #7892C3",
"<+	c #6B8BBC",
"[+	c #7096C5",
"}+	c #678FC0",
"|+	c #799DD1",
"1+	c #6584BA",
"2+	c #7691C8",
"3+	c #76AD74",
"4+	c #70A76E",
"5+	c #75AC73",
"6+	c #78AF76",
"7+	c #73AA71",
"8+	c #7AB178",
"9+	c #72A970",
"0+	c #E3BE6E",
"a+	c #E3BF71",
"b+	c #E4C076",
"c+	c #E4C17D",
"d+	c #E5C185",
"e+	c #DEBB85",
"f+	c #CBA775",
"g+	c #B69464",
"h+	c #8D6259",
"i+	c #9A6E63",
"j+	c #A7776D",
"k+	c #AB776C",
"l+	c #AC736A",
"m+	c #AD7167",
"n+	c #B07066",
"o+	c #B06D64",
"p+	c #8085A5",
"q+	c #858EAF",
"r+	c #7A89A8",
"s+	c #7E93B2",
"t+	c #748BAB",
"u+	c #8598B9",
"v+	c #7B89AE",
"w+	c #8A96BC",
"x+	c #87A687",
"y+	c #81A081",
"z+	c #83A283",
"A+	c #7D9C7D",
"B+	c #7F9E7F",
"C+	c #E0CD7E",
"D+	c #DFCC7F",
"E+	c #DBC97F",
"F+	c #D7C47F",
"G+	c #D5C381",
"H+	c #CBBB7D",
"I+	c #B9A96E",
"J+	c #A6955D",
"K+	c #675458",
"L+	c #766367",
"M+	c #857173",
"N+	c #8A7678",
"O+	c #8A7476",
"P+	c #8D7575",
"Q+	c #8E7475",
"R+	c #8C7273",
"S+	c #7C727B",
"T+	c #7F7782",
"U+	c #737079",
"V+	c #75757F",
"W+	c #676A73",
"X+	c #6E6E7A",
"Y+	c #696775",
"Z+	c #6F6B7A",
"`+	c #6B6D6A",
" @	c #6C6E6B",
".@	c #6F716E",
"+@	c #717370",
"@@	c #727471",
"#@	c #757774",
"$@	c #7A7C79",
"%@	c #7C7E7B",
"&@	c #7D6F6C",
"*@	c #7B706C",
"=@	c #7A6F6D",
"-@	c #7A706F",
";@	c #7F7574",
">@	c #7D7475",
",@	c #6F696B",
"'@	c #605A5C",
")@	c #54515A",
"!@	c #64616A",
"~@	c #747178",
"{@	c #77767C",
"]@	c #747378",
"^@	c #727274",
"/@	c #6F7072",
"(@	c #6E706F",
"_@	c #776865",
":@	c #796B68",
"<@	c #746967",
"[@	c #7F7573",
"}@	c #7B7371",
"|@	c #7C7374",
"1@	c #837A7B",
"2@	c #7B7273",
"3@	c #7A737A",
"4@	c #7F787F",
"5@	c #7D767D",
"6@	c #7B747B",
"7@	c #766F76",
"8@	c #706970",
"9@	c #726B72",
"0@	c #7A7571",
"a@	c #797470",
"b@	c #77746F",
"c@	c #77746D",
"d@	c #77776F",
"e@	c #727469",
"f@	c #63655A",
"g@	c #52554A",
"h@	c #565459",
"i@	c #67666B",
"j@	c #76757A",
"k@	c #77787A",
"l@	c #6F7372",
"m@	c #6A706E",
"n@	c #676D69",
"o@	c #636C67",
"p@	c #78716B",
"q@	c #77706A",
"r@	c #726A67",
"s@	c #7C7472",
"t@	c #75706D",
"u@	c #6A6665",
"v@	c #797876",
"w@	c #626262",
"x@	c #6B6766",
"y@	c #757170",
"z@	c #716D6C",
"A@	c #7C7877",
"B@	c #797574",
"C@	c #6F6B6A",
"D@	c #72676B",
"E@	c #736A6D",
"F@	c #756C6D",
"G@	c #77726F",
"H@	c #797671",
"I@	c #76736C",
"J@	c #63635B",
"K@	c #525248",
"L@	c #433F40",
"M@	c #565455",
"N@	c #6A6967",
"O@	c #71706C",
"P@	c #6F706B",
"Q@	c #6F726B",
"R@	c #72756E",
"S@	c #74776E",
"T@	c #6F6F6D",
"U@	c #716D6E",
"V@	c #666467",
"W@	c #57585A",
"X@	c #7D8285",
"Y@	c #656D6F",
"Z@	c #777A73",
"`@	c #656861",
" #	c #5F625B",
".#	c #73766F",
"+#	c #696C65",
"@#	c #72627C",
"##	c #74647E",
"$#	c #75677E",
"%#	c #766A80",
"&#	c #786C80",
"*#	c #70677A",
"=#	c #5D5465",
"-#	c #494252",
";#	c #222224",
">#	c #383838",
",#	c #4F4F4F",
"'#	c #585856",
")#	c #5B5A56",
"!#	c #605F5B",
"~#	c #676661",
"{#	c #6C6B66",
"]#	c #646663",
"^#	c #686866",
"/#	c #7A7476",
"(#	c #7A7478",
"_#	c #7B7B7D",
":#	c #CFD4D7",
"<#	c #C9D3D4",
"[#	c #D4D4D2",
"}#	c #C7C7C5",
"|#	c #949492",
"1#	c #737371",
"2#	c #7A7A78",
"3#	c #70706E",
"4#	c #5F5F5D",
"5#	c #6A6A68",
"6#	c #75725F",
"7#	c #726F5C",
"8#	c #6A6754",
"9#	c #61604C",
"0#	c #575846",
"a#	c #494A38",
"b#	c #303320",
"c#	c #1A1D0A",
"d#	c #151A1E",
"e#	c #2A2D32",
"f#	c #3C4043",
"g#	c #424345",
"h#	c #3F3F41",
"i#	c #403E3F",
"j#	c #454344",
"k#	c #484745",
"l#	c #555650",
"m#	c #5C5954",
"n#	c #625A58",
"o#	c #665A5A",
"p#	c #5F5556",
"q#	c #656162",
"r#	c #D3D5D4",
"s#	c #DBE1E1",
"t#	c #E1DCE3",
"u#	c #CAC5CC",
"v#	c #868188",
"w#	c #5A555C",
"x#	c #625D64",
"y#	c #5D585F",
"z#	c #514C53",
"A#	c #424146",
"B#	c #414247",
"C#	c #3F4045",
"D#	c #3C3F46",
"E#	c #3F424B",
"F#	c #3B3F48",
"G#	c #2D313C",
"H#	c #1B222C",
"I#	c #1D2120",
"J#	c #252726",
"K#	c #434544",
"L#	c #414141",
"M#	c #353535",
"N#	c #3C3A3B",
"O#	c #373536",
"P#	c #3A3637",
"Q#	c #424242",
"R#	c #323232",
"S#	c #343434",
"T#	c #3E3E3E",
"U#	c #2E2E2E",
"V#	c #D0D0D0",
"W#	c #CACACA",
"X#	c #C8C8C8",
"Y#	c #D3D3D3",
"Z#	c #4A4A4A",
"`#	c #313131",
" $	c #3D3D3D",
".$	c #3C3839",
"+$	c #3B393A",
"@$	c #363435",
"#$	c #444444",
"$$	c #3C3E3D",
"%$	c #272928",
"&$	c #242625",
"*$	c #424443",
"=$	c #393536",
"-$	c #3C3C3C",
";$	c #484848",
">$	c #D5D5D5",
",$	c #C5C5C5",
"'$	c #CBCBCB",
")$	c #565656",
"!$	c #393939",
"~$	c #464646",
"{$	c #2D2D2D",
"]$	c #373737",
"^$	c #393738",
"/$	c #333132",
"($	c #363636",
"_$	c #3A3C3B",
":$	c #1B1F1E",
"<$	c #1C201F",
"[$	c #232524",
"}$	c #414342",
"|$	c #404040",
"1$	c #333333",
"2$	c #343233",
"3$	c #373334",
"4$	c #3A3A3A",
"5$	c #DEDEDE",
"6$	c #D2D2D2",
"7$	c #E2E2E2",
"8$	c #DDDDDD",
"9$	c #D4D4D4",
"0$	c #E8E8E8",
"a$	c #D6D6D6",
"b$	c #D8D8D8",
"c$	c #4E4E4E",
"d$	c #363233",
"e$	c #312F30",
"f$	c #3F3F3F",
"g$	c #383A39",
"h$	c #191D1C",
"i$	c #222423",
"j$	c #404241",
"k$	c #323031",
"l$	c #353132",
"m$	c #535353",
"n$	c #E5E5E5",
"o$	c #DADADA",
"p$	c #E9E9E9",
"q$	c #E4E4E4",
"r$	c #DBDBDB",
"s$	c #E3E3E3",
"t$	c #4C4C4C",
"u$	c #343031",
"v$	c #2F2D2E",
"w$	c #373938",
"x$	c #181C1B",
"y$	c #212322",
"z$	c #3E403F",
"A$	c #2F2F2F",
"B$	c #353334",
"C$	c #322E2F",
"D$	c #545454",
"E$	c #EDEDED",
"F$	c #ECECEC",
"G$	c #EFEFEF",
"H$	c #E7E7E7",
"I$	c #332F30",
"J$	c #2E2C2D",
"K$	c #1F2120",
"L$	c #3D3F3E",
"M$	c #2D2B2C",
"N$	c #302C2D",
"O$	c #F4F4F4",
"P$	c #EBEBEB",
"Q$	c #EAEAEA",
"R$	c #F7F7F7",
"S$	c #F8F8F8",
"T$	c #FFFFFF",
"U$	c #F2F2F2",
"V$	c #F6F6F6",
"W$	c #575757",
"X$	c #303030",
"Y$	c #363837",
"Z$	c #171B1A",
"`$	c #1E201F",
" %	c #2B2B2B",
".%	c #2B292A",
"+%	c #2E2A2B",
"@%	c #2C2C2C",
"#%	c #585858",
"$%	c #4D4D4D",
"%%	c #FBFBFB",
"&%	c #FAFAFA",
"*%	c #FEFEFE",
"=%	c #6F6F6F",
"-%	c #515151",
";%	c #2F2B2C",
">%	c #2A2829",
",%	c #3B3B3B",
"'%	c #343635",
")%	c #202221",
"!%	c #161A19",
"~%	c #3B3D3C",
"{%	c #302E2F",
"]%	c #2D292A",
"^%	c #242424",
"/%	c #292929",
"(%	c #212121",
"_%	c #F1F1F1",
":%	c #F5F5F5",
"<%	c #505050",
"[%	c #262626",
"}%	c #2A2A2A",
"|%	c #272727",
"1%	c #2C2829",
"2%	c #2C2A2B",
"3%	c #282627",
"4%	c #323433",
"5%	c #141817",
"6%	c #1A1A1A",
"7%	c #161616",
"8%	c #1E1E1E",
"9%	c #292526",
"0%	c #312D2E",
"a%	c #282425",
"b%	c #272324",
"c%	c #FFFDFE",
"d%	c #FFFEFF",
"e%	c #FDF9FA",
"f%	c #4D494A",
"g%	c #1F1F1F",
"h%	c #181818",
"i%	c #202020",
"j%	c #151515",
"k%	c #1C1C1C",
"l%	c #252525",
"m%	c #282828",
"n%	c #211F20",
"o%	c #1E1C1D",
"p%	c #EDEBEC",
"q%	c #FBF9FA",
"r%	c #F9F7F8",
"s%	c #636162",
"t%	c #252324",
"u%	c #1F1D1E",
"v%	c #292728",
"w%	c #222222",
"x%	c #141414",
"y%	c #0F0F0F",
"z%	c #222021",
"A%	c #0B090A",
"B%	c #3A3839",
"C%	c #1D1B1C",
"D%	c #121011",
"E%	c #1A1819",
"F%	c #262425",
"G%	c #121212",
"H%	c #232323",
"I%	c #1B1B1B",
"J%	c #191919",
"K%	c #131313",
"L%	c #010101",
"M%	c #474747",
"N%	c #434343",
"O%	c #555555",
"P%	c #000000",
"Q%	c #B4B4B4",
"R%	c #333534",
"S%	c #4D4F4E",
"T%	c #444645",
"U%	c #2B2D2C",
"V%	c #171717",
"W%	c #B3B3B3",
"X%	c #777777",
"Y%	c #020202",
"Z%	c #0A0A0A",
"`%	c #111312",
" &	c #181A19",
".&	c #090B0A",
"+&	c #0C0E0D",
"@&	c #101211",
"#&	c #0B0D0C",
"$&	c #161817",
"%&	c #1A1C1B",
"&&	c #0D0F0E",
"*&	c #1B1D1C",
"=&	c #0B0B0B",
"-&	c #050505",
";&	c #787878",
">&	c #FCFCFC",
",&	c #B0B0B0",
"'&	c #0E0E0E",
")&	c #0C0C0C",
"!&	c #080C0B",
"~&	c #111514",
"{&	c #1A1E1D",
"]&	c #151918",
"^&	c #0F1312",
"/&	c #0A0E0D",
"(&	c #202423",
"_&	c #131716",
":&	c #101010",
"<&	c #AEAEAE",
"  . + @ # $ % & * = - ; > , ' ) ! ! ! ! ! ! ! ! ~ { ] ^ / ( _ : ",
"< [ } | 1 2 3 4 5 6 7 8 9 0 a b c c c c c c c c d e f g h i j k ",
"l m n o p q r s t u v w x y z A B B B B B B B B C D E F G H I J ",
"K L M N O P Q R S T U V W X Y Z ` ` ` ` ` ` ` `  ...+.@.#.$.%.&.",
"*.=.-.;.>.,.'.).!.~.{.].^./.(._.:.:.:.:.:.:.:.:.<.[.}.|.1.2.3.4.",
"5.3 6.7.8.9.0.a.b.c.d.e.f.g.h.i.j.j.j.j.j.j.j.j.k.l.m.n.o.p.q.r.",
"s.t.u.v.w.x.y.z.A.B.C.D.E.F.G.H.I.I.I.I.I.I.I.I.J.K.L.M.N.O.P.Q.",
"R.S.T.U.V.W.X.Y.Z.`. +.+++@+#+$+%+%+%+%+%+%+%+%+&+*+=+-+;+>+,+'+",
")+!+~+{+]+^+/+(+_+:+<+[+}+|+1+2+3+4+5+6+7+3+8+9+0+a+b+c+d+e+f+g+",
"h+i+j+k+l+m+n+o+p+q+r+s+t+u+v+w+x+y+z+z+A+B+z+B+C+D+E+F+G+H+I+J+",
"K+L+M+N+O+P+Q+R+S+T+U+V+W+X+Y+Z+`+ @.@+@@@#@$@%@&@*@=@-@;@>@,@'@",
")@!@~@{@]@^@/@(@_@:@<@[@}@|@1@2@3@4@5@3@6@7@8@9@0@a@b@c@d@e@f@g@",
"h@i@j@k@l@m@n@o@p@q@r@s@t@u@v@w@x@y@z@z@A@B@C@y@D@E@F@G@H@I@J@K@",
"L@M@N@O@P@Q@R@S@@@T@N@U@V@W@X@Y@R@Z@`@ #.#R@+#.#@###$#%#&#*#=#-#",
";#>#,#'#)#!#~#{#]#^#C@/#(#_#:#<#[#}#|#1#2#3#4#5#6#7#8#9#0#a#b#c#",
"d#e#f#g#h#i#j#k#l#m#n#o#p#q#r#s#t#u#v#w#x#y#z#x#A#B#C#D#E#F#G#H#",
"I#J#K#L#M#N#O#P#Q#R#S#T#U#R#V#W#X#Y#Z#>#U#`#># $.$+$@$>##$$$%$I#",
"I#&$*$L#S#+$@$=$R#-$>#;$L#>#>$,$'$X#)$T#!$~${$]$=$^$/$($Q#_$J#:$",
"<$[$}$|$1$^$2$3$4$L#5$V#6$7$6$8$9$0$V#a$b$'$c$S#d$@$e$1$f$g$[$h$",
":$i$j$T#`#O#k$l$M#m$n$o$7$p$5$q$7$q$5$r$s$q$t$!$u$2$v$R#T#w$[$x$",
"h$y$z$-$A$B$v$C$`#D$E$n$F$G$q$p$H$p$n$n$G$E$c$M#I$/$J$`#T#w$[$h$",
"x$K$L$4${$/$M$N$($;$O$P$Q$R$p$S$G$T$H$U$V$s$W$X$C$k$M$X$ $Y$i$x$",
"Z$`$$$!$ %e$.%+%@%|$~$#%,#$%%%&%*%G$=%-%c$W$R#A$;%v$>%{$,%'%)%!%",
"Z$`$~%># %{%>%]%{$^%/%X$(%M#_%T$T$:%<%X$[%}%}%|%1%2%3% %!$4%`$5%",
"6%7%4$]$8% %A$^%9%0%1%a%+%b%c%d%d%e%f%a%I$1%u$a%(%/%[%g%4$,%h%i%",
"j%k%-$4$}%l%8%m%M$M$n%o%{%+$p%q%d%r%s%{%t%u%>%v%`#w%|%{$,%($x%y%",
"k%^%>#R#U#U#(%/%z%>%.%>%t%A%B%.%C%v$D%E%z%.%.%F%@%i%{$X$1$($(%k%",
"G%y%M#4$|%{$}%H%I%(%l%[%@%/%H%^%^%m%`#{$(%l%8%J%g%H%m%m% $]$K%6%",
"f$L% %D$>#M#f$M#M%|$4$@%A$T#}%f$ $A$|$S#{$,%|$N%>#f$M#4$O%m%P%f$",
"Q%I%P%@%A$>#T#1$R%4%j$~%K#S%Y$T%R%U%*$L$}$L$~%4%>#f$>#R#{$P%V%W%",
"S$X%g%Y%Z%g%J%K%K$`% &.&+&@&#&@&`$$&$&#&%&&&*&$&G%j%I%=&-&g%;&>&",
"%%S$,&>#'&V%)&j%!%!&h$~&{&Z$:$~&~&]&^&/&(&!&{&_&h%=&7%:&4$<&V$>&"};
